<svg version="1.1" id="Layer_1" xmlns="http://www.w3.org/2000/svg" xmlns:xlink="http://www.w3.org/1999/xlink" x="0px" y="0px"
	 width="100%" viewBox="0 0 1280 720" enable-background="new 0 0 1280 720" xml:space="preserve">
<path fill="#FFFFFF" opacity="1.000000" stroke="none" 
	d="
M843.000000,721.000000 
	C562.035034,721.000000 281.570068,721.000000 1.052540,721.000000 
	C1.052540,481.065002 1.052540,241.129990 1.052540,1.097494 
	C427.548370,1.097494 854.096741,1.097494 1280.822510,1.097494 
	C1280.822510,240.999893 1280.822510,480.999939 1280.822510,721.000000 
	C1135.129883,721.000000 989.314941,721.000000 843.000000,721.000000 
M580.074402,633.425476 
	C600.554993,653.600952 621.035583,673.776428 642.029053,694.457092 
	C643.149231,693.051819 643.981873,691.772522 645.037903,690.716614 
	C675.193848,660.564392 705.375122,630.437439 735.545654,600.299805 
	C750.636780,585.225159 765.669495,570.091553 780.847473,555.105042 
	C783.152466,552.829102 784.073792,550.572815 784.071472,547.316956 
	C783.986511,429.999359 784.000183,312.681732 784.000183,195.364075 
	C784.000183,193.614197 784.000244,191.864334 784.000244,190.007996 
	C826.185303,190.007996 867.673279,189.847519 909.158936,190.088226 
	C925.397217,190.182434 937.518616,200.328812 942.344238,216.132889 
	C949.361633,239.115067 933.027466,265.203156 906.975769,264.194916 
	C883.181274,263.274048 859.322998,263.999664 835.492859,263.999664 
	C833.730530,263.999664 831.968140,263.999664 830.313721,263.999664 
	C830.313721,286.341614 830.313721,308.075867 830.313721,330.000336 
	C852.940613,330.000336 875.254089,329.960938 897.567505,330.010529 
	C924.155884,330.069611 948.263367,322.547241 970.064819,307.199310 
	C1024.490723,268.884247 1027.464478,191.149078 976.103516,148.842850 
	C952.580750,129.467194 925.394531,121.035522 895.293701,121.012581 
	C837.134827,120.968246 778.975891,120.997650 720.817017,121.013031 
	C719.562744,121.013359 718.308533,121.213173 716.999756,121.324577 
	C716.999756,123.727264 716.999817,125.724167 716.999817,127.721077 
	C716.999817,257.870361 716.983154,388.019623 717.085083,518.168823 
	C717.087952,521.827515 716.014465,524.311035 713.442505,526.828674 
	C701.534607,538.485046 689.812927,550.331970 678.034424,562.120361 
	C665.909851,574.255249 653.796631,586.401489 640.620605,599.602600 
	C639.424438,597.822144 638.611572,596.072388 637.331909,594.787781 
	C614.516052,571.884094 591.688782,548.991211 568.722717,526.238525 
	C566.031860,523.572632 564.919495,520.960938 564.922241,517.167480 
	C565.015869,386.518341 565.000183,255.869141 565.000183,125.219940 
	C565.000183,123.269188 565.000244,121.318436 565.000244,119.295929 
	C479.553131,119.295929 394.551941,119.295929 309.153198,119.295929 
	C319.002197,140.245667 328.830353,160.725449 338.199615,181.413055 
	C340.255951,185.953384 342.706726,187.142960 347.501434,187.122818 
	C395.494171,186.921265 443.488068,187.000351 491.481659,187.000351 
	C493.246399,187.000351 495.011108,187.000366 496.999664,187.000366 
	C496.999664,189.565262 496.999664,191.543152 496.999664,193.521042 
	C496.999664,310.338745 497.011292,427.156464 496.952209,543.974182 
	C496.950073,548.152832 498.060394,551.353943 501.139526,554.414856 
	C527.374390,580.494568 553.450500,606.734131 580.074402,633.425476 
M603.341309,96.000114 
	C607.911987,95.115143 606.990723,98.392281 606.991150,100.881065 
	C607.002075,172.206268 607.000000,243.531464 607.000000,314.856659 
	C607.000000,382.348969 606.988159,449.841248 607.057251,517.333496 
	C607.059326,519.346619 607.237610,522.027771 608.470276,523.266602 
	C619.135620,533.984924 630.061768,544.443665 641.058167,555.123413 
	C651.120300,545.356689 660.803589,535.748230 670.754578,526.425476 
	C673.764160,523.605957 675.109497,520.839783 675.105530,516.577271 
	C674.977539,378.426514 675.000000,240.275574 675.000000,102.124664 
	C675.000000,100.182915 675.000000,98.241158 675.000000,96.000061 
	C677.311340,96.000061 679.112793,96.000061 680.914246,96.000061 
	C779.736328,96.000061 878.558350,95.984283 977.380371,96.066864 
	C980.775696,96.069702 982.818359,95.421944 984.097839,91.906982 
	C985.910583,86.927391 988.442627,82.210823 990.644104,77.371353 
	C998.054749,61.081200 1005.455200,44.786415 1012.966248,28.258778 
	C764.880188,28.258778 517.225891,28.258778 269.115448,28.258778 
	C278.796967,49.468529 288.431641,70.235710 297.690979,91.168930 
	C299.389435,95.008789 301.375275,96.093735 305.405914,96.089104 
	C404.394501,95.975288 503.383240,96.000069 603.341309,96.000114 
z"/>
<path fill="#0C2132" opacity="1.000000" stroke="none" 
	d="
M579.824219,633.175659 
	C553.450500,606.734131 527.374390,580.494568 501.139526,554.414856 
	C498.060394,551.353943 496.950073,548.152832 496.952209,543.974182 
	C497.011292,427.156464 496.999664,310.338745 496.999664,193.521042 
	C496.999664,191.543152 496.999664,189.565262 496.999664,187.000366 
	C495.011108,187.000366 493.246399,187.000351 491.481659,187.000351 
	C443.488068,187.000351 395.494171,186.921265 347.501434,187.122818 
	C342.706726,187.142960 340.255951,185.953384 338.199615,181.413055 
	C328.830353,160.725449 319.002197,140.245667 309.153198,119.295929 
	C394.551941,119.295929 479.553131,119.295929 565.000244,119.295929 
	C565.000244,121.318436 565.000183,123.269188 565.000183,125.219940 
	C565.000183,255.869141 565.015869,386.518341 564.922241,517.167480 
	C564.919495,520.960938 566.031860,523.572632 568.722717,526.238525 
	C591.688782,548.991211 614.516052,571.884094 637.331909,594.787781 
	C638.611572,596.072388 639.424438,597.822144 640.620605,599.602600 
	C653.796631,586.401489 665.909851,574.255249 678.034424,562.120361 
	C689.812927,550.331970 701.534607,538.485046 713.442505,526.828674 
	C716.014465,524.311035 717.087952,521.827515 717.085083,518.168823 
	C716.983154,388.019623 716.999817,257.870361 716.999817,127.721077 
	C716.999817,125.724167 716.999756,123.727264 716.999756,121.324577 
	C718.308533,121.213173 719.562744,121.013359 720.817017,121.013031 
	C778.975891,120.997650 837.134827,120.968246 895.293701,121.012581 
	C925.394531,121.035522 952.580750,129.467194 976.103516,148.842850 
	C1027.464478,191.149078 1024.490723,268.884247 970.064819,307.199310 
	C948.263367,322.547241 924.155884,330.069611 897.567505,330.010529 
	C875.254089,329.960938 852.940613,330.000336 830.313721,330.000336 
	C830.313721,308.075867 830.313721,286.341614 830.313721,263.999664 
	C831.968140,263.999664 833.730530,263.999664 835.492859,263.999664 
	C859.322998,263.999664 883.181274,263.274048 906.975769,264.194916 
	C933.027466,265.203156 949.361633,239.115067 942.344238,216.132889 
	C937.518616,200.328812 925.397217,190.182434 909.158936,190.088226 
	C867.673279,189.847519 826.185303,190.007996 784.000244,190.007996 
	C784.000244,191.864334 784.000183,193.614197 784.000183,195.364075 
	C784.000183,312.681732 783.986511,429.999359 784.071472,547.316956 
	C784.073792,550.572815 783.152466,552.829102 780.847473,555.105042 
	C765.669495,570.091553 750.636780,585.225159 735.545654,600.299805 
	C705.375122,630.437439 675.193848,660.564392 645.037903,690.716614 
	C643.981873,691.772522 643.149231,693.051819 642.029053,694.457092 
	C621.035583,673.776428 600.554993,653.600952 579.824219,633.175659 
z"/>
<path fill="#0C2132" opacity="1.000000" stroke="none" 
	d="
M602.856628,96.000092 
	C503.383240,96.000069 404.394501,95.975288 305.405914,96.089104 
	C301.375275,96.093735 299.389435,95.008789 297.690979,91.168930 
	C288.431641,70.235710 278.796967,49.468529 269.115448,28.258778 
	C517.225891,28.258778 764.880188,28.258778 1012.966248,28.258778 
	C1005.455200,44.786415 998.054749,61.081200 990.644104,77.371353 
	C988.442627,82.210823 985.910583,86.927391 984.097839,91.906982 
	C982.818359,95.421944 980.775696,96.069702 977.380371,96.066864 
	C878.558350,95.984283 779.736328,96.000061 680.914246,96.000061 
	C679.112793,96.000061 677.311340,96.000061 675.000000,96.000061 
	C675.000000,98.241158 675.000000,100.182915 675.000000,102.124664 
	C675.000000,240.275574 674.977539,378.426514 675.105530,516.577271 
	C675.109497,520.839783 673.764160,523.605957 670.754578,526.425476 
	C660.803589,535.748230 651.120300,545.356689 641.058167,555.123413 
	C630.061768,544.443665 619.135620,533.984924 608.470276,523.266602 
	C607.237610,522.027771 607.059326,519.346619 607.057251,517.333496 
	C606.988159,449.841248 607.000000,382.348969 607.000000,314.856659 
	C607.000000,243.531464 607.002075,172.206268 606.991150,100.881065 
	C606.990723,98.392281 607.911987,95.115143 602.856628,96.000092 
z"/>
</svg>